<?xml version="1.0" encoding="windows-1252"?>
<!DOCTYPE svg PUBLIC "-//W3C//DTD SVG December 1999//EN" "http://www.w3.org/Graphics/SVG/SVG-19991203.dtd" [
	<!ENTITY st0 "fill:#000000;">
	<!ENTITY st1 "fill-rule:nonzero;fill:#D30E2B;">
	<!ENTITY st2 "fill:#D30E2B;">
]>
<svg xml:space="preserve" width="282.588" height="72.785" viewBox="-10 -10 161 56">
<g id="Layer_x0020_1">
	<g style="fill-rule:nonzero;fill:#D30E2B;">
		<g>
			<path d="M17.57,19.498c-0.607,0.009,0.115,0.312,0.908,0.436c0.22-0.172,0.418-0.344,0.595-0.512c-0.494,0.119-0.996,0.123-1.502,0.076z"/>
			<path d="M20.83,18.686c0.362-0.498,0.625-1.045,0.718-1.61c-0.082,0.403-0.299,0.75-0.505,1.118c-1.135,0.715-0.107-0.426-0.001-0.859c-1.22,1.538-0.168,0.922-0.212,1.352z"/>
			<path d="M22.033,15.555c0.074-1.094-0.215-0.748-0.312-0.331c0.113,0.06,0.203,0.772,0.312,0.331z"/>
			<path d="M15.267,0.605c0.324,0.059,0.701,0.104,0.647,0.181c0.355-0.079,0.436-0.149-0.647-0.181z"/>
			<path d="M15.914,0.786l-0.229,0.048l0.213-0.02l0.015-0.028z"/>
			<path d="M26.022,15.969c0.036,0.982-0.287,1.459-0.578,2.303l-0.525,0.262c-0.43,0.835,0.041,0.531-0.266,1.194c-0.672,0.596-2.035,1.864-2.472,1.981c-0.319-0.008,0.216-0.377,0.286-0.521c-0.897,0.617-0.721,0.926-2.093,1.301l-0.041-0.09     c-3.386,1.594-8.089-1.563-8.027-5.871c-0.036,0.273-0.103,0.205-0.178,0.316c-0.175-2.217,1.023-4.442,3.044-5.352c1.977-0.979,4.294-0.577,5.709,0.742c-0.778-1.018-2.326-2.098-4.16-1.998c-1.797,0.029-3.478,1.172-4.039,2.412     c-0.92,0.578-1.028,2.232-1.429,2.537c-0.54,3.967,1.015,5.68,3.646,7.695c0.414,0.279,0.116,0.322,0.172,0.535c-0.874-0.41-1.674-1.027-2.333-1.785c0.35,0.512,0.727,1.009,1.213,1.398c-0.824-0.279-1.925-1.996-2.246-2.066c1.421,2.543,5.763,4.461,8.038,3.51     c-1.052,0.039-2.39,0.021-3.571-0.416c-0.498-0.256-1.172-0.785-1.052-0.883c3.104,1.158,6.309,0.877,8.995-1.275c0.684-0.532,1.43-1.438,1.645-1.449c-0.324,0.488,0.057,0.234-0.193,0.666c0.68-1.098-0.296-0.447,0.703-1.896l0.369,0.509     c-0.138-0.912,1.132-2.019,1.002-3.46c0.292-0.44,0.326,0.475,0.018,1.488c0.428-1.125,0.112-1.306,0.223-2.232c0.118,0.311,0.275,0.643,0.355,0.973c-0.279-1.088,0.285-1.832,0.426-2.463c-0.139-0.061-0.431,0.48-0.498-0.803c0.01-0.559,0.156-0.293,0.211-0.43     c-0.109-0.064-0.396-0.49-0.57-1.311c0.125-0.193,0.338,0.499,0.51,0.527c-0.11-0.652-0.301-1.148-0.31-1.649c-0.504-1.052-0.179,0.142-0.587-0.452c-0.535-1.672,0.445-0.387,0.512-1.146c0.812,1.176,1.275,3.001,1.488,3.757     c-0.162-0.922-0.424-1.814-0.745-2.679c0.247,0.105-0.397-1.895,0.321-0.57c-0.768-2.824-3.283-5.461-5.598-6.698c0.283,0.259,0.64,0.585,0.512,0.636c-1.152-0.686-0.949-0.739-1.114-1.029c-0.937-0.381-0.999,0.031-1.62,0.002     c-1.768-0.938-2.108-0.838-3.735-1.426l0.074,0.346c-1.171-0.391-1.365,0.147-2.63,0.001c-0.077-0.06,0.405-0.218,0.803-0.274c-1.132,0.148-1.079-0.225-2.187,0.041c0.273-0.191,0.562-0.318,0.853-0.482c-0.923,0.057-2.204,0.537-1.809,0.1     c-1.506,0.673-4.181,1.615-5.681,3.023L6.813,3.199C6.126,4.025,3.814,5.666,3.63,6.736L3.447,6.779C3.089,7.385,2.857,8.07,2.573,8.695c-0.468,0.797-0.686,0.307-0.62,0.432c-0.92,1.865-1.378,3.435-1.773,4.721c0.281,0.422,0.006,2.533,0.113,4.225     c-0.462,8.35,5.86,16.457,12.771,18.328c1.013,0.361,2.519,0.348,3.8,0.385c-1.511-0.432-1.707-0.229-3.179-0.742c-1.062-0.5-1.295-1.07-2.047-1.725l0.297,0.527c-1.476-0.523-0.858-0.646-2.059-1.027l0.318-0.416c-0.478-0.035-1.267-0.805-1.482-1.232     l-0.523,0.021c-0.629-0.775-0.964-1.336-0.939-1.769l-0.168,0.302c-0.192-0.329-2.313-2.91-1.213-2.309c-0.204-0.188-0.477-0.305-0.771-0.84l0.224-0.256c-0.529-0.682-0.975-1.555-0.94-1.846c0.282,0.381,0.478,0.453,0.672,0.518     c-1.337-3.318-1.413-0.182-2.425-3.377l0.214-0.018c-0.164-0.248-0.264-0.516-0.396-0.779l0.094-0.93c-0.962-1.111-0.269-4.732-0.13-6.719c0.096-0.807,0.804-1.666,1.341-3.015L3.424,11.1c0.627-1.094,3.578-4.39,4.945-4.221c0.663-0.832-0.132-0.003-0.261-0.213     c1.454-1.504,1.912-1.062,2.893-1.334c1.059-0.627-0.909,0.246-0.407-0.238c1.83-0.468,1.297-1.062,3.684-1.301c0.252,0.145-0.584,0.221-0.794,0.408c1.524-0.746,4.825-0.576,6.968,0.413c2.487,1.163,5.281,4.599,5.392,7.831l0.125,0.033     c-0.062,1.285,0.197,2.771-0.254,4.137l0.307-0.646z"/>
			<path d="M10.941,20.332l-0.086,0.426c0.4,0.542,0.717,1.129,1.226,1.553c-0.367-0.715-0.639-1.011-1.14-1.979z"/>
			<path d="M11.884,20.295c-0.21-0.234-0.335-0.516-0.476-0.795c0.134,0.492,0.409,0.916,0.664,1.346l-0.188-0.551z"/>
			<path d="M28.583,16.666l-0.088,0.224c-0.164,1.161-0.518,2.312-1.059,3.378c0.598-1.125,0.984-2.355,1.146-3.602z"/>
			<path d="M15.388,0.314c0.411-0.15,1.009-0.082,1.445-0.182c-0.568,0.048-1.133,0.076-1.691,0.148l0.246,0.033z"/>
			<path d="M0.971,7.98c0.094,0.877-0.659,1.217,0.167,0.639C1.581,7.621,0.965,8.344,0.971,7.98z"/>
			<path d="M0,12.035c0.19-0.584,0.225-0.936,0.297-1.273C-0.228,11.434,0.055,11.578,0,12.035z"/>
		</g>
	</g>
	<g style="fill-rule:nonzero;">
		<path d="M46.268,17.809c-0.045,0.047-0.045,7.506-0.139,9.453c-0.092,1.574-0.23,4.959-3.566,4.959c-3.43,0-4.264-3.94-4.541-5.654c-0.324-1.899-0.324-3.476-0.324-4.17c0-2.225,0.139-8.435,5.375-8.435c1.576,0,2.455,0.464,3.15,0.834l0.045,3.013z     M32.831,23.277c0,13.066,6.951,13.066,7.971,13.066c2.873,0,4.727-1.574,5.514-4.309l0.094,4.123c0.881-0.047,1.76-0.139,3.197-0.139c0.51,0,0.926,0,1.297,0.047c0.371,0,0.742,0.045,1.158,0.092c-0.74-1.482-1.297-4.818-1.297-12.049    c0-7.042,0-18.951,0.602-22.565C49.7,2.332,48.262,2.842,45.11,3.119c1.252,1.344,1.252,2.039,1.252,8.155c-0.879-0.277-1.992-0.603-3.893-0.603c-8.293,0-9.639,7.229-9.639,12.605z"/>
		<path d="M57.961,20.913c0.047-3.846,0.834-7.275,4.123-7.275c3.615,0,3.893,3.984,3.801,7.275h-7.924z M70.471,21.377c0-5.422-1.064-10.751-7.922-10.751c-9.453,0-9.453,10.473-9.453,12.696c0,9.408,4.217,13.115,11.307,13.115c3.148,0,4.68-0.463,5.514-0.695    c-0.047-1.668,0.186-2.734,0.465-4.172c-0.975,0.605-2.227,1.391-5.006,1.391c-7.229,0-7.322-6.581-7.322-8.852h12.328l0.09-2.732z"/>
		<path d="M85.547,23.369c0,4.31-0.787,10.102-6.164,10.102c-0.74,0-1.668-0.139-2.27-0.277c-0.092-1.668-0.092-4.543-0.092-7.879c0-3.985,0.416-6.068,0.742-7.089c0.971-3.29,3.148-3.336,3.566-3.336c3.521,0,4.217,4.866,4.217,8.479z M72.249,28.42    c0,3.43,0,5.375-0.557,6.857c1.9,0.742,4.262,1.16,7.09,1.16c1.807,0,7.043,0,9.869-5.793c1.346-2.688,1.807-6.302,1.807-9.037c0-1.668-0.184-5.327-1.527-7.646c-1.299-2.177-3.383-3.29-5.607-3.29c-4.449,0-5.744,3.708-6.439,5.608    c0-2.364,0.045-10.612,0.416-14.829c-3.012,1.391-4.867,1.622-6.857,1.807c1.807,0.741,1.807,3.801,1.807,13.764V28.42z"/>
		<path d="M99.366,36.158c-0.928-0.139-1.576-0.23-2.92-0.23c-1.482,0-2.502,0.092-3.568,0.23c0.465-0.881,0.65-1.297,0.789-4.309c0.186-4.125,0.23-15.153-0.094-17.47c-0.23-1.762-0.648-2.039-1.297-2.503c3.799-0.37,4.865-0.647,6.625-1.482    c-0.371,2.038-0.416,3.059-0.416,6.162c-0.092,15.988-0.139,17.703,0.881,19.602z"/>
		<path d="M114.204,23.044c-0.092,2.92-0.139,4.959-0.928,6.58c-0.973,2.087-2.594,2.688-3.799,2.688c-2.781,0-3.383-2.317-3.383-4.588c0-4.355,3.893-4.681,5.652-4.681h2.457z M101.459,28.744c0,2.92,0.881,5.838,3.477,7.09c1.158,0.51,2.316,0.51,2.688,0.51    c4.264,0,5.699-3.15,6.58-5.098c-0.047,2.039,0,3.291,0.139,4.912c0.834-0.047,1.668-0.139,3.059-0.139c0.787,0,1.529,0.092,2.316,0.139c-0.51-0.787-0.787-1.25-0.928-3.057c-0.092-1.762-0.092-3.522-0.092-5.979l0.047-9.452c0-3.523-0.928-6.999-7.879-6.999    c-4.586,0-7.273,1.392-8.617,2.087c0.557,1.019,1.02,1.898,1.436,3.892c1.809-1.575,4.172-2.41,6.58-2.41c3.848,0,3.848,2.55,3.848,6.163c-0.881-0.046-1.623-0.138-2.875-0.138c-5.885,0-9.777,2.269-9.777,8.479z"/>
		<path d="M140.893,31.57c0.047,1.576,0.047,3.246,0.695,4.588c-1.02-0.092-1.623-0.23-3.521-0.23c-1.113,0-1.715,0.092-2.596,0.23c0.184-0.602,0.279-0.834,0.371-1.621c0.139-1.066,0.232-4.635,0.232-5.887v-5.003c0-2.178,0-5.33-0.141-6.441    c-0.092-0.788-0.322-2.918-3.012-2.918c-2.641,0-3.52,1.944-3.846,3.521c-0.369,1.621-0.369,3.383-0.369,10.24c0.045,5.932,0.045,6.488,0.508,8.109c-0.787-0.092-1.76-0.184-3.15-0.184c-1.113,0-1.854,0.045-2.779,0.184c0.324-0.74,0.51-1.111,0.602-3.707    c0.094-2.549,0.279-15.06-0.141-18.025c-0.23-1.808-0.695-2.225-1.203-2.687c3.754-0.187,4.957-0.789,6.117-1.391v4.912c0.555-1.438,1.713-4.635,6.348-4.635c5.793,0,5.838,4.216,5.885,6.996V31.57z"/>
		<path style="fill:#D30E2B;" d="M99.756,3.837L95.92,7.672l-3.836-3.836L95.92,0l3.836,3.837z"/>
	</g>
</g><!-- Layer_x0020_1 -->
</svg>