<?xml version="1.0" encoding="UTF-8" standalone="no"?>
<svg
   xmlns:dc="http://purl.org/dc/elements/1.1/"
   xmlns:cc="http://creativecommons.org/ns#"
   xmlns:rdf="http://www.w3.org/1999/02/22-rdf-syntax-ns#"
   xmlns:svg="http://www.w3.org/2000/svg"
   xmlns="http://www.w3.org/2000/svg"
   xml:space="preserve"
   enable-background="new 0 0 1920 1200"
   viewBox="0 0 1920 1200"
   height="1200px"
   width="1920px"
   y="0px"
   x="0px"
   id="Layer_1"
   version="1.1"><metadata
     id="metadata115"><rdf:RDF><cc:Work
         rdf:about=""><dc:format>image/svg+xml</dc:format><dc:type
           rdf:resource="http://purl.org/dc/dcmitype/StillImage" /><dc:title></dc:title></cc:Work></rdf:RDF></metadata><defs
     id="defs113"><radialGradient
       id="rect11_1_"
       cx="3935.3669"
       cy="1901.052"
       r="2425.521"
       fx="3682.4878"
       fy="1914.728"
       gradientTransform="matrix(1.1643,0,0,-1.1024,-2329.2542,2112.51)"
       gradientUnits="userSpaceOnUse"><stop
         offset="0"
         style="stop-color:#073246"
         id="stop6" /><stop
         offset="0.4409"
         style="stop-color:#489291"
         id="stop8" /><stop
         offset="0.9891"
         style="stop-color:#063246"
         id="stop10" /></radialGradient></defs><rect
     id="rect11"
     x="-205"
     y="-148.39999"
     width="2731.5"
     height="1496.8"
     style="fill:url(#rect11_1_)" /><path
     d="m 2005.2879,497.88256 c 64.98,50.22 34.92,198.1791 -67.32,330.57 -102.15,132.39 -237.6909,198.99004 -302.76,148.77 -64.98,-50.22 -34.92,-198.18 67.32,-330.57 102.24,-132.3909 237.78,-198.99 302.76,-148.77 z"
     stroke-miterlimit="10"
     id="ellipse115"
     style="fill:url(#ellipse115_1_);stroke:url(#ellipse115_2_);stroke-width:0.89999998;stroke-miterlimit:10" /><path
     d="m 1389.6879,871.56166 c 122.04,-122.04 285.39,-156.42 364.95,-76.8591 79.56,79.5591 45.09,242.90914 -76.86,364.95004 -122.04,122.04 -285.39,156.42 -364.95,76.8591 -79.56,-79.5591 -45.09,-242.90914 76.86,-364.95004 l 0,0 z"
     stroke-miterlimit="10"
     id="path122"
     style="fill:url(#path122_1_);stroke:url(#path122_2_);stroke-width:0.89999998;stroke-miterlimit:10" /><linearGradient
     gradientTransform="matrix(1.02537,0.09675,-0.09675,-0.9747,-939.26148,795.65872)"
     y2="555.4577"
     x2="2889.6902"
     y1="75.4578"
     x1="2533.6902"
     gradientUnits="userSpaceOnUse"
     id="ellipse115_1_"><stop
       id="stop14"
       style="stop-color:#FF703E;stop-opacity:0.5"
       offset="0" /><stop
       id="stop16"
       style="stop-color:#FF703E;stop-opacity:0"
       offset="1" /></linearGradient><linearGradient
     gradientTransform="matrix(0.9,0,0,0.9,157.22787,115.38256)"
     y2="691.3"
     x2="2092.0066"
     y1="691.3"
     x1="1603.5935"
     gradientUnits="userSpaceOnUse"
     id="ellipse115_2_"><stop
       id="stop19"
       style="stop-color:#FFFFFF;stop-opacity:0.5"
       offset="0" /><stop
       id="stop21"
       style="stop-color:#FFFFFF;stop-opacity:0"
       offset="1" /></linearGradient><linearGradient
     gradientTransform="matrix(0.9,0,0,-0.9,-375.96849,1230.4303)"
     y2="307.4633"
     x2="1720.1268"
     y1="193.4631"
     x1="2386.1306"
     gradientUnits="userSpaceOnUse"
     id="path122_1_"><stop
       id="stop25"
       style="stop-color:#C4D36A;stop-opacity:0.5"
       offset="0" /><stop
       id="stop27"
       style="stop-color:#FFFF00;stop-opacity:0"
       offset="0.672" /></linearGradient><linearGradient
     gradientTransform="matrix(0.9,0,0,0.9,157.22787,115.38256)"
     y2="1295.5022"
     x2="1358.9851"
     y1="704.9963"
     x1="1699.9138"
     gradientUnits="userSpaceOnUse"
     id="path122_2_"><stop
       id="stop30"
       style="stop-color:#FFFFFF;stop-opacity:0.5"
       offset="0" /><stop
       id="stop32"
       style="stop-color:#FFFFFF;stop-opacity:0"
       offset="1" /></linearGradient><linearGradient
     gradientTransform="matrix(0.9,0,0,-0.9,-910.05612,2031.4742)"
     y2="1154.3909"
     x2="2929.1228"
     y1="1154.3909"
     x1="2922.9958"
     gradientUnits="userSpaceOnUse"
     id="path129_1_"><stop
       id="stop36"
       style="stop-color:#FFFFFF;stop-opacity:0.5"
       offset="0" /><stop
       id="stop38"
       style="stop-color:#FFFFFF;stop-opacity:0"
       offset="1" /></linearGradient><linearGradient
     gradientTransform="matrix(0.9,0,0,-0.9,-375.96849,1230.4303)"
     y2="112.2419"
     x2="2557.491"
     y1="112.2419"
     x1="1644.991"
     gradientUnits="userSpaceOnUse"
     id="path136_1_"><stop
       id="stop42"
       style="stop-color:#FFFFFF;stop-opacity:0"
       offset="0" /><stop
       id="stop44"
       style="stop-color:#FFFFFF;stop-opacity:0.5"
       offset="1" /></linearGradient><linearGradient
     gradientTransform="matrix(0.9,0,0,-0.9,-375.96849,1230.4303)"
     y2="263.6418"
     x2="2389.8904"
     y1="263.6418"
     x1="2147.7908"
     gradientUnits="userSpaceOnUse"
     id="path157_1_"><stop
       id="stop48"
       style="stop-color:#FFFFFF;stop-opacity:0.5"
       offset="0" /><stop
       id="stop50"
       style="stop-color:#FF00FF;stop-opacity:0"
       offset="1" /></linearGradient><linearGradient
     gradientTransform="matrix(0.9005,-0.3782,-0.3872,-0.922,-294.7356,2551.2888)"
     y2="1498.7159"
     x2="1490.8843"
     y1="733.637"
     x1="2694.0085"
     gradientUnits="userSpaceOnUse"
     id="path122-9_1_"><stop
       id="stop54"
       style="stop-color:#00FFFF;stop-opacity:0.5"
       offset="0" /><stop
       id="stop56"
       style="stop-color:#00FFFF;stop-opacity:0"
       offset="0.5914" /></linearGradient><linearGradient
     y2="1103.7697"
     x2="1118.4648"
     y1="415.8347"
     x1="1515.6443"
     gradientUnits="userSpaceOnUse"
     id="path122-9_2_"><stop
       id="stop59"
       style="stop-color:#FFFFFF;stop-opacity:0.5"
       offset="0" /><stop
       id="stop61"
       style="stop-color:#FFFFFF;stop-opacity:0"
       offset="1" /></linearGradient><linearGradient
     gradientTransform="matrix(0.5543,0.8323,0.8323,-0.5543,792.9485,-1747.2346)"
     y2="-417.6651"
     x2="1371.4865"
     y1="-1023.7244"
     x1="2823.6345"
     gradientUnits="userSpaceOnUse"
     id="path136-2_1_"><stop
       id="stop65"
       style="stop-color:#C95D67;stop-opacity:0.5"
       offset="0" /><stop
       id="stop67"
       style="stop-color:#FFC7DB;stop-opacity:0"
       offset="0.543" /></linearGradient><linearGradient
     y2="502.4797"
     x2="1905.908"
     y1="502.4797"
     x1="846.3171"
     gradientUnits="userSpaceOnUse"
     id="path136-2_2_"><stop
       id="stop70"
       style="stop-color:#FFFFFF;stop-opacity:0.5"
       offset="0" /><stop
       id="stop72"
       style="stop-color:#FFFFFF;stop-opacity:0"
       offset="1" /></linearGradient><path
     d="m 1422.7,388.4 c 311,96.3 515.9,340.7 457.5,545.8 -58.3,205.101 -357.8,293.301 -668.8,197 -311,-96.3 -515.9,-340.7 -457.5,-545.8 58.401,-205.2 357.8,-293.3 668.8,-197 z"
     stroke-miterlimit="10"
     id="path122-9"
     style="fill:url(#path122-9_1_);stroke:url(#path122-9_2_);stroke-miterlimit:10" /><path
     d="m 1733.5,264.5 c 215.6,323.8 230.4,692.9 33.1,824.3 -197.4,131.399 -532.2,-24.5 -747.8,-348.3 C 803.1,416.7 788.301,47.6 985.7,-83.8 c 197.3,-131.5 532.2,24.5 747.8,348.3 z"
     stroke-miterlimit="10"
     id="path136-2"
     style="fill:url(#path136-2_1_);stroke:url(#path136-2_2_);stroke-miterlimit:10" /><path
     d="m 1515.1488,720.54256 c 226.44,0 409.95,183.06 409.95,408.87004 0,225.81 -183.51,408.8709 -409.95,408.8709 -226.4409,0 -409.95,-183.06 -409.95,-408.8709 0,-225.81004 183.5091,-408.87004 409.95,-408.87004 l 0,0 z"
     stroke-miterlimit="10"
     id="path136"
     style="fill:none;stroke:url(#path136_1_);stroke-width:1.35000002;stroke-miterlimit:10" /><path
     d="m 1723.4079,990.90256 c 1.26,0 2.3409,0.72 2.3409,1.62 0,0.9 -0.9909,1.62 -2.3409,1.62 -1.2591,0 -2.34,-0.72 -2.34,-1.62 0,-0.9 1.0809,-1.62 2.34,-1.62 z"
     stroke-miterlimit="10"
     id="path129"
     style="fill:none;stroke:url(#path129_1_);stroke-width:0.89999998;stroke-miterlimit:10" /><path
     d="m 1665.9879,858.60256 c 59.85,0 108.27,60.3 108.27,134.55 0,74.34004 -48.5091,134.55004 -108.27,134.55004 -59.85,0 -108.27,-60.3 -108.27,-134.55004 0,-74.25 48.42,-134.55 108.27,-134.55 l 0,0 z"
     stroke-miterlimit="10"
     id="path157"
     style="fill:none;stroke:url(#path157_1_);stroke-width:1.35000002;stroke-miterlimit:10" /><radialGradient
     gradientUnits="userSpaceOnUse"
     r="176.1836"
     cy="1170.7542"
     cx="249.1598"
     id="line150-0_1_"><stop
       id="stop100"
       style="stop-color:#FFFFFF;stop-opacity:0.5"
       offset="0" /><stop
       id="stop102"
       style="stop-color:#FFFFFF;stop-opacity:0.0732"
       offset="0.8536" /><stop
       id="stop104"
       style="stop-color:#FFFFFF;stop-opacity:0"
       offset="1" /></radialGradient><radialGradient
     gradientUnits="userSpaceOnUse"
     r="156.1866"
     cy="1190.1946"
     cx="280.4"
     id="line143-1_1_"><stop
       id="stop108"
       style="stop-color:#FFFFFF;stop-opacity:0.5"
       offset="0" /><stop
       id="stop110"
       style="stop-color:#FFFFFF;stop-opacity:0"
       offset="0.8548" /></radialGradient></svg>